<svg width="25" height="24" viewBox="0 0 25 24" fill="none" xmlns="http://www.w3.org/2000/svg">
<path d="M11.8841 2.51136L3.01191 7.7432C2.98142 7.76118 2.96271 7.79394 2.96271 7.82934V21.4183C2.96271 21.4736 3.00748 21.5183 3.06271 21.5183H9.38547C9.4407 21.5183 9.48547 21.4736 9.48547 21.4183V14.6241C9.48547 14.5689 9.53024 14.5241 9.58547 14.5241H14.4609C14.5162 14.5241 14.5609 14.5689 14.5609 14.6241V21.4183C14.5609 21.4736 14.6057 21.5183 14.6609 21.5183H20.9763C21.0316 21.5183 21.0763 21.4736 21.0763 21.4183V7.82988C21.0763 7.79419 21.0573 7.76121 21.0264 7.74333L11.9849 2.51095C11.9537 2.49287 11.9152 2.49303 11.8841 2.51136Z" fill="white" stroke="white" stroke-width="2"/>
</svg>
