<svg width="25" height="24" viewBox="0 0 25 24" fill="none" xmlns="http://www.w3.org/2000/svg">
<path d="M3.00403 1.78516C2.45032 1.78516 2.00134 2.23389 2.00134 2.78809V21.1777C2.00134 21.7319 2.45032 22.1807 3.00403 22.1807C3.55774 22.1807 4.00671 21.7319 4.00671 21.1777V2.78809C4.00671 2.23389 3.55774 1.78516 3.00403 1.78516Z" fill="white"/>
<path d="M8.04504 2.78809C8.04504 2.23389 8.49402 1.78516 9.04773 1.78516C9.60144 1.78516 10.0504 2.23389 10.0504 2.78809V21.1777C10.0504 21.7319 9.60144 22.1807 9.04773 22.1807C8.49402 22.1807 8.04504 21.7319 8.04504 21.1777V2.78809Z" fill="white"/>
<path fill-rule="evenodd" clip-rule="evenodd" d="M14.047 3.0083C14.047 2.14941 14.9872 1.62207 15.7203 2.06982L21.5109 5.60547C21.6722 5.7041 21.8024 5.84033 21.8932 5.99902C21.9865 6.1626 22.0377 6.3501 22.0377 6.54443V21.1147C22.0377 21.7222 21.545 22.2148 20.9376 22.2148H15.1471C14.5394 22.2148 14.047 21.7222 14.047 21.1147V3.0083Z" fill="white"/>
</svg>
