<svg width="25" height="24" viewBox="0 0 25 24" fill="none" xmlns="http://www.w3.org/2000/svg">
<path d="M2.77839 14.0097H6.26592C6.55506 14.0097 6.82169 14.1657 6.96334 14.4177L9.58638 19.0852C9.68435 19.2595 9.717 19.4657 9.65551 19.656C9.22139 20.9992 8.13186 21.7258 7.41087 21.9887C7.19477 22.0675 6.95898 22.0073 6.78814 21.8533C5.04958 20.286 3.25379 16.9017 2.77839 14.0097ZM2.77839 14.0097C2.17167 10.3188 3.57668 1.91333 13.3579 1.91333C16.9527 1.91333 23.9525 5.3642 23.2548 14.0097M23.2548 14.0097H19.8712C19.5937 14.0097 19.3361 14.1534 19.1904 14.3896L16.3654 18.9679C16.2169 19.2086 16.2035 19.5119 16.3584 19.7485C16.8507 20.5002 17.7719 21.5164 18.8475 21.5892C18.9284 21.5947 19.0086 21.5834 19.0816 21.5481C19.9885 21.1097 22.2553 18.4841 23.2548 14.0097Z" stroke="white" stroke-width="2.2"/>
</svg>
