<svg width="25" height="24" viewBox="0 0 25 24" fill="none" xmlns="http://www.w3.org/2000/svg">
<mask id="path-1-inside-1_64_216" fill="white">
<path fill-rule="evenodd" clip-rule="evenodd" d="M22.7714 0C23.3236 0 23.7714 0.447716 23.7714 1V23C23.7714 23.5523 23.3236 24 22.7714 24H20.6337C20.0814 24 19.6337 23.5523 19.6337 23V13.7078L2.94369 23.5551C2.61038 23.7517 2.18962 23.5115 2.18962 23.1245L2.18961 0.866501C2.18961 0.481508 2.60646 0.240959 2.93979 0.433592L19.6337 10.081V1C19.6337 0.447715 20.0814 0 20.6337 0H22.7714Z"/>
</mask>
<path fill-rule="evenodd" clip-rule="evenodd" d="M22.7714 0C23.3236 0 23.7714 0.447716 23.7714 1V23C23.7714 23.5523 23.3236 24 22.7714 24H20.6337C20.0814 24 19.6337 23.5523 19.6337 23V13.7078L2.94369 23.5551C2.61038 23.7517 2.18962 23.5115 2.18962 23.1245L2.18961 0.866501C2.18961 0.481508 2.60646 0.240959 2.93979 0.433592L19.6337 10.081V1C19.6337 0.447715 20.0814 0 20.6337 0H22.7714Z" fill="white"/>
<path d="M19.6337 13.7078L19.1255 12.8465L20.6337 11.9567V13.7078H19.6337ZM2.94369 23.5551L2.43553 22.6938H2.43554L2.94369 23.5551ZM2.18962 23.1245H3.18962H2.18962ZM2.18961 0.866501L1.18961 0.866501V0.866501H2.18961ZM2.93979 0.433592L2.43943 1.29941V1.29941L2.93979 0.433592ZM19.6337 10.081H20.6337V11.8138L19.1333 10.9468L19.6337 10.081ZM22.7714 1V1V-1C23.8759 -1 24.7714 -0.104568 24.7714 1H22.7714ZM22.7714 23V1H24.7714V23H22.7714ZM22.7714 23H22.7714H24.7714C24.7714 24.1046 23.8759 25 22.7714 25V23ZM20.6337 23H22.7714V25H20.6337V23ZM20.6337 23V25C19.5291 25 18.6337 24.1046 18.6337 23H20.6337ZM20.6337 13.7078V23H18.6337V13.7078H20.6337ZM2.43554 22.6938L19.1255 12.8465L20.1418 14.569L3.45185 24.4163L2.43554 22.6938ZM3.18962 23.1245C3.18962 22.7375 2.76885 22.4972 2.43553 22.6938L3.45185 24.4163C2.45192 25.0063 1.18962 24.2855 1.18962 23.1245H3.18962ZM3.18961 0.866501L3.18962 23.1245H1.18962L1.18961 0.866501L3.18961 0.866501ZM2.43943 1.29941C2.77277 1.49204 3.18961 1.2515 3.18961 0.866501H1.18961C1.18961 -0.288479 2.44015 -1.01013 3.44015 -0.432227L2.43943 1.29941ZM19.1333 10.9468L2.43943 1.29941L3.44015 -0.432228L20.134 9.21513L19.1333 10.9468ZM20.6337 1V10.081H18.6337V1H20.6337ZM20.6337 1H18.6337C18.6337 -0.104569 19.5291 -1 20.6337 -1V1ZM22.7714 1H20.6337V-1H22.7714V1Z" fill="white" mask="url(#path-1-inside-1_64_216)"/>
</svg>
