<svg width="22" height="24" viewBox="0 0 22 24" fill="none" xmlns="http://www.w3.org/2000/svg">
<mask id="path-1-inside-1_64_66" fill="white">
<path fill-rule="evenodd" clip-rule="evenodd" d="M1.18958 0C0.637291 0 0.189575 0.447716 0.189575 1V23C0.189575 23.5523 0.63729 24 1.18958 24H3.32728C3.87956 24 4.32728 23.5523 4.32728 23V13.7078L21.0172 23.5551C21.3506 23.7517 21.7713 23.5115 21.7713 23.1245L21.7713 0.866501C21.7713 0.481508 21.3545 0.240959 21.0211 0.433592L4.32728 10.081V1C4.32728 0.447715 3.87956 0 3.32728 0H1.18958Z"/>
</mask>
<path fill-rule="evenodd" clip-rule="evenodd" d="M1.18958 0C0.637291 0 0.189575 0.447716 0.189575 1V23C0.189575 23.5523 0.63729 24 1.18958 24H3.32728C3.87956 24 4.32728 23.5523 4.32728 23V13.7078L21.0172 23.5551C21.3506 23.7517 21.7713 23.5115 21.7713 23.1245L21.7713 0.866501C21.7713 0.481508 21.3545 0.240959 21.0211 0.433592L4.32728 10.081V1C4.32728 0.447715 3.87956 0 3.32728 0H1.18958Z" fill="white"/>
<path d="M4.32728 13.7078L4.83544 12.8465L3.32728 11.9567V13.7078H4.32728ZM21.0172 23.5551L21.5254 22.6938H21.5254L21.0172 23.5551ZM21.7713 23.1245H20.7713H21.7713ZM21.7713 0.866501L22.7713 0.866501V0.866501H21.7713ZM21.0211 0.433592L21.5215 1.29941V1.29941L21.0211 0.433592ZM4.32728 10.081H3.32728V11.8138L4.82763 10.9468L4.32728 10.081ZM1.18958 1V1V-1C0.0850052 -1 -0.810425 -0.104568 -0.810425 1H1.18958ZM1.18958 23V1H-0.810425V23H1.18958ZM1.18958 23H1.18958H-0.810425C-0.810425 24.1046 0.0850051 25 1.18958 25V23ZM3.32728 23H1.18958V25H3.32728V23ZM3.32728 23V25C4.43185 25 5.32728 24.1046 5.32728 23H3.32728ZM3.32728 13.7078V23H5.32728V13.7078H3.32728ZM21.5254 22.6938L4.83544 12.8465L3.81912 14.569L20.5091 24.4163L21.5254 22.6938ZM20.7713 23.1245C20.7713 22.7375 21.1921 22.4972 21.5254 22.6938L20.5091 24.4163C21.509 25.0063 22.7713 24.2855 22.7713 23.1245H20.7713ZM20.7713 0.866501L20.7713 23.1245H22.7713L22.7713 0.866501L20.7713 0.866501ZM21.5215 1.29941C21.1882 1.49204 20.7713 1.2515 20.7713 0.866501H22.7713C22.7713 -0.288479 21.5208 -1.01013 20.5208 -0.432227L21.5215 1.29941ZM4.82763 10.9468L21.5215 1.29941L20.5208 -0.432228L3.82692 9.21513L4.82763 10.9468ZM3.32728 1V10.081H5.32728V1H3.32728ZM3.32728 1H5.32728C5.32728 -0.104569 4.43185 -1 3.32728 -1V1ZM1.18958 1H3.32728V-1H1.18958V1Z" fill="white" mask="url(#path-1-inside-1_64_66)"/>
</svg>
