<svg width="48" height="48" viewBox="0 0 48 48" fill="none" xmlns="http://www.w3.org/2000/svg">
<path fill-rule="evenodd" clip-rule="evenodd" d="M15 26V22C15 21.4477 15.4477 21 16 21H18.5858C18.851 21 19.1054 20.8947 19.2929 20.7071L22.2929 17.7071C22.9229 17.0772 24 17.5233 24 18.4142V29.5858C24 30.4767 22.9229 30.9229 22.2929 30.2929L19.2929 27.2929C19.1054 27.1054 18.851 27 18.5858 27H16C15.4477 27 15 26.5523 15 26ZM26.0357 21.0582C25.6131 20.4862 25.7284 19.571 26.3846 19.2968C26.7263 19.154 27.1246 19.2285 27.3635 19.5115C28.3986 20.738 29.0186 22.2996 29.0186 24C29.0186 25.7656 28.3502 27.3816 27.2426 28.6282C27.0001 28.9011 26.6066 28.9673 26.2715 28.8222C25.6154 28.5382 25.5168 27.611 25.9561 27.0468C26.6279 26.1839 27.0186 25.1233 27.0186 24C27.0186 22.9219 26.6587 21.9015 26.0357 21.0582Z" fill="#EAEAEA"/>
</svg>
