<svg width="48" height="48" viewBox="0 0 48 48" fill="none" xmlns="http://www.w3.org/2000/svg">
<path fill-rule="evenodd" clip-rule="evenodd" d="M15 26V22C15 21.4477 15.4477 21 16 21H18.5858C18.851 21 19.1054 20.8947 19.2929 20.7071L22.2929 17.7071C22.9229 17.0772 24 17.5233 24 18.4142V29.5858C24 30.4767 22.9229 30.9229 22.2929 30.2929L19.2929 27.2929C19.1054 27.1054 18.851 27 18.5858 27H16C15.4477 27 15 26.5523 15 26ZM26.0357 21.0582C25.6131 20.4862 25.7284 19.571 26.3846 19.2968C26.7263 19.154 27.1246 19.2285 27.3635 19.5115C28.3986 20.738 29.0186 22.2996 29.0186 24C29.0186 25.7656 28.3502 27.3816 27.2426 28.6282C27.0001 28.9011 26.6066 28.9673 26.2715 28.8222C25.6154 28.5382 25.5168 27.611 25.9561 27.0468C26.6279 26.1839 27.0186 25.1233 27.0186 24C27.0186 22.9219 26.6587 21.9015 26.0357 21.0582ZM29.5228 19.4805C29.1202 18.9229 29.2783 18.0875 29.9128 17.8223C30.2914 17.6641 30.7325 17.7623 30.982 18.088C32.2507 19.744 33 21.7882 33 24C33 26.2933 32.1945 28.4064 30.8398 30.0934C30.5853 30.4103 30.1474 30.4998 29.7744 30.3384C29.1399 30.0638 28.9958 29.219 29.4132 28.6678C30.4155 27.3442 31 25.7257 31 24C31 22.3382 30.458 20.7759 29.5228 19.4805Z" fill="#EAEAEA"/>
</svg>
