<svg width="25" height="24" viewBox="0 0 25 24" fill="none" xmlns="http://www.w3.org/2000/svg">
<path d="M3.38818 5.5542C3.38818 4.5249 4.16602 3.67676 5.16602 3.56641V3.5542H8.38818V5.5542H5.38818V13.6792H8.38818V15.6792H5.38818V15.6934C4.28369 15.6934 3.38818 14.7979 3.38818 13.6934V5.5542Z" fill="white"/>
<path d="M8.38818 18.4458V20.4458H5.38818V18.4458H8.38818Z" fill="white"/>
<path d="M16.4614 10.1909C17.29 10.1909 17.9614 9.51953 17.9614 8.69092C17.9614 7.8623 17.29 7.19092 16.4614 7.19092C15.6328 7.19092 14.9614 7.8623 14.9614 8.69092C14.9614 9.51953 15.6328 10.1909 16.4614 10.1909Z" fill="white"/>
<path d="M18.9614 14.6792C18.9614 16.0601 17.8423 17.1792 16.4614 17.1792C15.0806 17.1792 13.9614 16.0601 13.9614 14.6792C13.9614 13.2983 15.0806 12.1792 16.4614 12.1792C17.8423 12.1792 18.9614 13.2983 18.9614 14.6792Z" fill="white"/>
<path fill-rule="evenodd" clip-rule="evenodd" d="M12.3501 3.5542C11.2456 3.5542 10.3501 4.44971 10.3501 5.5542V18.4458C10.3501 19.5503 11.2456 20.4458 12.3501 20.4458H20.5728C21.6772 20.4458 22.5728 19.5503 22.5728 18.4458V5.5542C22.5728 4.44971 21.6772 3.5542 20.5728 3.5542H12.3501ZM12.3501 5.5542H20.5728V18.4458H12.3501V5.5542Z" fill="white"/>
</svg>
